<svg width="30" height="26" viewBox="0 0 30 26" fill="none" xmlns="http://www.w3.org/2000/svg">
<g id="Property 1=active3">
<path id="hover3" d="M27.6867 2.29859C26.9537 1.56987 26.0833 0.991797 25.1254 0.597398C24.1675 0.202998 23.1407 0 22.1038 0C21.0669 0 20.0402 0.202998 19.0822 0.597398C18.1243 0.991797 17.254 1.56987 16.5209 2.29859L14.9996 3.81023L13.4783 2.29859C11.9976 0.827316 9.98941 0.000762612 7.89541 0.000762628C5.80142 0.000762643 3.79319 0.827316 2.31251 2.29859C0.831836 3.76986 1.56015e-08 5.76534 0 7.84603C-1.56015e-08 9.92673 0.831836 11.9222 2.31251 13.3935L3.83382 14.9051L14.9996 26L26.1654 14.9051L27.6867 13.3935C28.4201 12.6651 29.0019 11.8003 29.3988 10.8484C29.7957 9.89658 30 8.87635 30 7.84603C30 6.81571 29.7957 5.79548 29.3988 4.84363C29.0019 3.89178 28.4201 3.02697 27.6867 2.29859Z" fill="#FF0000"/>
</g>
</svg>
