<svg width="32" height="28" viewBox="0 0 32 28" fill="none" xmlns="http://www.w3.org/2000/svg">
<g id="Property 1=defalt3">
<path id="defalt3" d="M28.6867 3.29859C27.9537 2.56987 27.0833 1.9918 26.1254 1.5974C25.1675 1.203 24.1407 1 23.1038 1C22.0669 1 21.0402 1.203 20.0822 1.5974C19.1243 1.9918 18.254 2.56987 17.5209 3.29859L15.9996 4.81023L14.4783 3.29859C12.9976 1.82732 10.9894 1.00076 8.89541 1.00076C6.80142 1.00076 4.79319 1.82732 3.31251 3.29859C1.83184 4.76986 1 6.76534 1 8.84603C1 10.9267 1.83184 12.9222 3.31251 14.3935L4.83382 15.9051L15.9996 27L27.1654 15.9051L28.6867 14.3935C29.4201 13.6651 30.0019 12.8003 30.3988 11.8484C30.7957 10.8966 31 9.87635 31 8.84603C31 7.81571 30.7957 6.79548 30.3988 5.84363C30.0019 4.89178 29.4201 4.02697 28.6867 3.29859Z" fill="white" stroke="black" stroke-linecap="round" stroke-linejoin="round"/>
</g>
</svg>
